<svg width="40" height="40" viewBox="0 0 40 40" fill="none" xmlns="http://www.w3.org/2000/svg">
<path d="M14 21L18.2385 24.8147C18.6561 25.1904 19.3011 25.1487 19.6667 24.7222L28 15" stroke="#4A9CBF" stroke-width="3" stroke-linecap="round"/>
<path d="M18.249 2.6709C19.3712 1.28264 21.4573 1.23852 22.6396 2.54004L22.751 2.6709C24.1709 4.42717 26.4645 5.21279 28.6533 4.70996L28.8652 4.65723C30.5889 4.19383 32.3013 5.38418 32.4932 7.13184L32.5068 7.30273C32.6231 9.5586 34.0172 11.5432 36.084 12.4229L36.2861 12.5039C37.9531 13.1423 38.6391 15.113 37.7666 16.6396L37.6768 16.7852C36.445 18.6784 36.4068 21.1029 37.5615 23.0293L37.6768 23.2148C38.65 24.711 38.0472 26.7073 36.4443 27.4297L36.2861 27.4961C34.1767 28.3037 32.7205 30.2421 32.5225 32.4795L32.5068 32.6973C32.4147 34.4796 30.7535 35.7404 29.0322 35.3828L28.8652 35.3428C26.684 34.7563 24.366 35.4686 22.8906 37.1621L22.751 37.3291C21.6288 38.7174 19.5427 38.7615 18.3604 37.46L18.249 37.3291C16.8291 35.5728 14.5355 34.7872 12.3467 35.29L12.1348 35.3428C10.4111 35.8062 8.69865 34.6158 8.50684 32.8682L8.49316 32.6973C8.37689 30.4414 6.98282 28.4568 4.91602 27.5771L4.71387 27.4961C3.04685 26.8577 2.3609 24.887 3.2334 23.3604L3.32324 23.2148C4.55503 21.3216 4.5932 18.8971 3.43848 16.9707L3.32324 16.7852C2.34996 15.289 2.95279 13.2927 4.55566 12.5703L4.71387 12.5039C6.82329 11.6963 8.27947 9.75786 8.47754 7.52051L8.49316 7.30273C8.58526 5.52035 10.2465 4.25958 11.9678 4.61719L12.1348 4.65723C14.316 5.2437 16.634 4.53144 18.1094 2.83789L18.249 2.6709Z" stroke="black" stroke-width="3"/>
</svg>
