<svg width="40" height="40" viewBox="0 0 40 40" fill="none" xmlns="http://www.w3.org/2000/svg">
<path d="M35.6538 8.46154V31.5385C35.6538 32.7625 35.1676 33.9365 34.302 34.802C33.4365 35.6676 32.2625 36.1538 31.0384 36.1538H25.6538C25.2458 36.1538 24.8545 35.9918 24.566 35.7032C24.2774 35.4147 24.1154 35.0234 24.1154 34.6154C24.1154 34.2074 24.2774 33.816 24.566 33.5275C24.8545 33.239 25.2458 33.0769 25.6538 33.0769H31.0384C31.4465 33.0769 31.8378 32.9148 32.1263 32.6263C32.4148 32.3378 32.5769 31.9465 32.5769 31.5385V8.46154C32.5769 8.05351 32.4148 7.6622 32.1263 7.37368C31.8378 7.08516 31.4465 6.92308 31.0384 6.92308H25.6538C25.2458 6.92308 24.8545 6.76099 24.566 6.47247C24.2774 6.18395 24.1154 5.79264 24.1154 5.38462C24.1154 4.97659 24.2774 4.58528 24.566 4.29676C24.8545 4.00824 25.2458 3.84615 25.6538 3.84615H31.0384C32.2625 3.84615 33.4365 4.33242 34.302 5.19797C35.1676 6.06352 35.6538 7.23746 35.6538 8.46154ZM21.0384 1.53846V38.4615C21.0384 38.8696 20.8764 39.2609 20.5878 39.5494C20.2993 39.8379 19.908 40 19.5 40C19.092 40 18.7006 39.8379 18.4121 39.5494C18.1236 39.2609 17.9615 38.8696 17.9615 38.4615V36.1538H7.96152C6.73744 36.1538 5.5635 35.6676 4.69795 34.802C3.83239 33.9365 3.34613 32.7625 3.34613 31.5385V8.46154C3.34613 7.23746 3.83239 6.06352 4.69795 5.19797C5.5635 4.33242 6.73744 3.84615 7.96152 3.84615H17.9615V1.53846C17.9615 1.13044 18.1236 0.739122 18.4121 0.450605C18.7006 0.162087 19.092 0 19.5 0C19.908 0 20.2993 0.162087 20.5878 0.450605C20.8764 0.739122 21.0384 1.13044 21.0384 1.53846ZM17.9615 33.0769V6.92308H7.96152C7.55349 6.92308 7.16218 7.08516 6.87366 7.37368C6.58514 7.6622 6.42305 8.05351 6.42305 8.46154V31.5385C6.42305 31.9465 6.58514 32.3378 6.87366 32.6263C7.16218 32.9148 7.55349 33.0769 7.96152 33.0769H17.9615Z" fill="black"/>
<rect x="18" width="3" height="40" rx="1.5" fill="#4A9CBF"/>
</svg>
