<svg width="41" height="41" viewBox="0 0 41 41" fill="none" xmlns="http://www.w3.org/2000/svg">
<rect x="0.585938" y="0.133301" width="40" height="40" rx="20" fill="white"/>
<path d="M19.6082 21.3299H13.1053C12.7368 21.3299 12.4281 21.2051 12.1793 20.9554C11.9304 20.7056 11.8056 20.397 11.8047 20.0293C11.8038 19.6617 11.9287 19.353 12.1793 19.1033C12.4298 18.8536 12.7385 18.7288 13.1053 18.7288H19.6082V12.2259C19.6082 11.8574 19.733 11.5487 19.9827 11.2999C20.2324 11.051 20.5411 10.9262 20.9087 10.9253C21.2764 10.9244 21.5855 11.0493 21.8361 11.2999C22.0866 11.5504 22.2111 11.8591 22.2093 12.2259V18.7288H28.7122C29.0807 18.7288 29.3898 18.8536 29.6395 19.1033C29.8892 19.353 30.0137 19.6617 30.0128 20.0293C30.0119 20.397 29.8871 20.7061 29.6382 20.9567C29.3894 21.2072 29.0807 21.3317 28.7122 21.3299H22.2093V27.8328C22.2093 28.2013 22.0845 28.5104 21.8347 28.7601C21.585 29.0098 21.2764 29.1343 20.9087 29.1334C20.5411 29.1325 20.2324 29.0077 19.9827 28.7588C19.733 28.51 19.6082 28.2013 19.6082 27.8328V21.3299Z" fill="black"/>
</svg>
