<svg width="32" height="32" viewBox="0 0 32 32" fill="none" xmlns="http://www.w3.org/2000/svg">
<g clip-path="url(#clip0_1465_190)">
<path d="M28.7998 0C30.5671 0 32 1.43288 32 3.2002V28.7998C32 30.5671 30.5671 32 28.7998 32H3.2002C1.43288 32 0 30.5671 0 28.7998V3.2002C0 1.43288 1.43288 0 3.2002 0H28.7998Z" fill="white"/>
<path d="M20.7271 6.0835C20.7269 7.31294 21.174 8.50033 21.9839 9.42529C23.5957 11.2859 25.8237 11.1792 25.8237 11.1792V14.8413C23.9955 14.8444 22.212 14.273 20.7271 13.2065V20.6606C20.727 24.3938 17.7052 27.4155 13.9839 27.4155C10.5115 27.4155 7.24076 24.6071 7.24072 20.6606C7.24072 16.6075 10.82 13.4309 14.9087 13.9761V17.7212C12.8821 17.0931 10.9146 18.6222 10.9146 20.6606C10.9146 22.3671 12.3128 23.7416 13.9956 23.7417C14.7914 23.7422 15.5568 23.434 16.1294 22.8813C16.7021 22.3286 17.0373 21.5743 17.0649 20.7788V6.0835H20.7271Z" fill="black"/>
</g>
<defs>
<clipPath id="clip0_1465_190">
<rect width="32" height="32" rx="6" fill="white"/>
</clipPath>
</defs>
</svg>
