<svg width="24" height="24" viewBox="0 0 24 24" fill="none" xmlns="http://www.w3.org/2000/svg">
<path d="M12 17.001C12.2833 17.001 12.521 16.905 12.713 16.713C12.905 16.521 13.0007 16.2836 13 16.001C12.9993 15.7183 12.9033 15.481 12.712 15.289C12.5207 15.097 12.2833 15.001 12 15.001C11.7167 15.001 11.4793 15.097 11.288 15.289C11.0967 15.481 11.0007 15.7183 11 16.001C10.9993 16.2836 11.0953 16.5213 11.288 16.714C11.4807 16.9066 11.718 17.0023 12 17.001ZM11 13.001H13V7.00098H11V13.001ZM12 22.001C10.6167 22.001 9.31667 21.7383 8.1 21.213C6.88334 20.6876 5.825 19.9753 4.925 19.076C4.025 18.1766 3.31267 17.1183 2.788 15.901C2.26333 14.6836 2.00067 13.3836 2 12.001C1.99933 10.6183 2.262 9.31831 2.788 8.10098C3.314 6.88364 4.02633 5.82531 4.925 4.92598C5.82367 4.02664 6.882 3.31431 8.1 2.78898C9.318 2.26364 10.618 2.00098 12 2.00098C13.382 2.00098 14.682 2.26364 15.9 2.78898C17.118 3.31431 18.1763 4.02664 19.075 4.92598C19.9737 5.82531 20.6863 6.88364 21.213 8.10098C21.7397 9.31831 22.002 10.6183 22 12.001C21.998 13.3836 21.7353 14.6836 21.212 15.901C20.6887 17.1183 19.9763 18.1766 19.075 19.076C18.1737 19.9753 17.1153 20.688 15.9 21.214C14.6847 21.74 13.3847 22.0023 12 22.001Z" fill="#DB0909"/>
</svg>
